<?xml version="1.0" encoding="UTF-8"?>
<svg id="b" data-name="Layer 2" xmlns="http://www.w3.org/2000/svg" viewBox="0 0 9.92 9.92">
  <g id="c" data-name="Layer 1">
    <path d="M4.96,6.11c-.32,0-.57-.26-.57-.57s.26-.57.57-.57.57.26.57.57-.26.57-.57.57ZM9.92,4.96c0,2.74-2.22,4.96-4.96,4.96S0,7.7,0,4.96,2.22,0,4.96,0c2.74,0,4.96,2.22,4.96,4.96ZM.76,4.96v.02c2.42-2.06,5.97-2.06,8.39,0v-.02c0-2.32-1.88-4.2-4.2-4.2S.76,2.64.76,4.96ZM3.98,9.04l-.81-2.17h-1.95c.56,1.09,1.57,1.89,2.76,2.17ZM4.96,9.16h.12l.96-2.56c.11-.3.4-.49.72-.5h2.25c.02-.06.03-.13.05-.19-2.21-2.26-5.84-2.29-8.09-.08-.03.03-.05.05-.08.08.01.06.03.13.05.19h2.25c.32,0,.6.2.72.5l.95,2.55s.08,0,.12,0ZM8.7,6.87h-1.95l-.82,2.17c1.19-.29,2.2-1.08,2.76-2.17Z" fill="#c49f6a"/>
  </g>
</svg>